{"title":"The Lost Future 2010 TVRiP XViD-Feel-Free","uid":5988150,"size":677445426,"categoryP":"video","categoryS":"movies","magnet":"?xt=urn:btih:b3132f82e1c59112c61299c68e3217561ac5edc4&amp;dn=The+Lost+Future+2010+TVRiP+XViD-Feel-Free&amp;tr=udp%3A%2F%2Ftracker.openbittorrent.com%3A80&amp;tr=udp%3A%2F%2Fopen.demonii.com%3A1337&amp;tr=udp%3A%2F%2Ftracker.coppersurfer.tk%3A6969&amp;tr=udp%3A%2F%2Fexodus.desync.com%3A6969","seeders":0,"leechers":0,"uploader":"tigg3rxz","files":1,"time":1290806388,"description":"Genere:Adventure | Sci-Fi\nLanguage:English\nSource:SyFy\n\nGeneral\nComplete name :The.Lost.Future.TVRip.2010.XviD.Feel-Free\nFormat : AVI\nFormat/Info : Audio Video Interleave\nFile size : 646 MiB\nDuration : 1h 27mn\nOverall bit rate : 1 029 Kbps\nVideo #0\nCodec ID : XVID\nCodec ID/Hint : XviD\nDuration : 1h 27mn\nBit rate : 903 Kbps\nWidth : 652 pixels\nHeight : 352 pixels\nDisplay aspect ratio : 1.852\nFrame rate : 23.976 fps\nResolution : 24 bits\nColorimetry : 4:2:0\nScan type : Progressive\nBits/(Pixel*Frame) : 0.164\nStream size : 567 MiB (88%)\nWriting library : XviD 1.2.1 (UTC 2008-12-04)\nAudio #1\nID : 1\nFormat : MPEG Audio\nFormat version : Version 1\nFormat profile : Layer 3\nCodec ID : 55\nCodec ID/Hint : MP3\nDuration : 1h 27mn\nBit rate mode : Variable\nBit rate : 113 Kbps\nNominal bit rate : 128 Kbps\nChannel(s) : 2 channels\nSampling rate : 48.0 KHz\nResolution : 16 bits\nVideo delay : 24ms\nStream size : 71.3 MiB (11%)\nAlignment : Split across interleaves\nInterleave, duration : 24 ms (0.58 video frame)\nInterleave, preload duration : 571 ms\n &lt;a href=&quot;\nhttp://www.imdb.com/title/tt1615091/&quot; rel=&quot;nofollow&quot; target=&quot;_NEW&quot;&gt;\nhttp://www.imdb.com/title/tt1615091/&lt;/a&gt;","torrent":{"xt":"urn:btih:b3132f82e1c59112c61299c68e3217561ac5edc4","amp;dn":"The+Lost+Future+2010+TVRiP+XViD-Feel-Free","amp;tr":["udp%3A%2F%2Ftracker.openbittorrent.com%3A80","udp%3A%2F%2Fopen.demonii.com%3A1337","udp%3A%2F%2Ftracker.coppersurfer.tk%3A6969","udp%3A%2F%2Fexodus.desync.com%3A6969"],"infoHash":"b3132f82e1c59112c61299c68e3217561ac5edc4","infoHashBuffer":{"type":"Buffer","data":[179,19,47,130,225,197,145,18,198,18,153,198,142,50,23,86,26,197,237,196]},"announce":[],"urlList":[]}}